<?xml version="1.0" encoding="UTF-8" standalone="no"?>
<!-- Created with Inkscape (http://www.inkscape.org/) -->

<svg
   width="16.118912mm"
   height="16.118414mm"
   viewBox="0 0 16.118912 16.118414"
   version="1.1"
   id="svg1"
   xml:space="preserve"
   xmlns:inkscape="http://www.inkscape.org/namespaces/inkscape"
   xmlns:sodipodi="http://sodipodi.sourceforge.net/DTD/sodipodi-0.dtd"
   xmlns="http://www.w3.org/2000/svg"
   xmlns:svg="http://www.w3.org/2000/svg"><sodipodi:namedview
     id="namedview1"
     pagecolor="#ffffff"
     bordercolor="#000000"
     borderopacity="0.25"
     inkscape:showpageshadow="2"
     inkscape:pageopacity="0.0"
     inkscape:pagecheckerboard="0"
     inkscape:deskcolor="#d1d1d1"
     inkscape:document-units="mm" /><defs
     id="defs1" /><g
     inkscape:label="Layer 1"
     inkscape:groupmode="layer"
     id="layer1"
     transform="translate(-132.26818,-163.92277)"><path
       id="path5"
       style="fill:#000000;stroke-width:0.345088"
       d="m 140.32762,163.92277 a 8.0592604,8.0592604 0 0 0 -8.05945,8.05894 8.0592604,8.0592604 0 0 0 8.05945,8.05946 8.0592604,8.0592604 0 0 0 8.05946,-8.05946 8.0592604,8.0592604 0 0 0 -8.05946,-8.05894 z m 0,1.51102 a 6.5481415,6.5481415 0 0 1 6.54792,6.54792 6.5481415,6.5481415 0 0 1 -6.54792,6.54844 6.5481415,6.5481415 0 0 1 -6.54792,-6.54844 6.5481415,6.5481415 0 0 1 6.54792,-6.54792 z" /><g
       style="fill:#000000;stroke-width:0;stroke-dasharray:none"
       id="g6"
       transform="matrix(0.55846339,0,0,0.59448218,138.15018,163.44036)"><g
         id="path6"
         style="fill:#000000;stroke-width:0;stroke-dasharray:none"><path
           style="color:#000000;fill:#000000;stroke-width:0;stroke-dasharray:none"
           d="m -0.44433133,7.6944001 a 0.678,0.678 0 0 0 -1.01499997,-0.063 l -1.034,1.035 c -0.483,0.484 -0.661,1.169 -0.45,1.7699999 a 17.6,17.6 0 0 0 4.168,6.608 17.6,17.6 0 0 0 6.6080001,4.168 c 0.601,0.211 1.286,0.033 1.77,-0.45 l 1.0340002,-1.034 a 0.678,0.678 0 0 0 -0.063,-1.015 l -2.3070002,-1.794 a 0.68,0.68 0 0 0 -0.58,-0.122 l -2.1900001,0.547 a 1.75,1.75 0 0 1 -1.657,-0.459 l -2.456,-2.457 a 1.75,1.75 0 0 1 -0.46000001,-1.657 l 0.54800001,-2.19 a 0.68,0.68 0 0 0 -0.122,-0.58 z m -1.76999997,-0.817 a 1.745,1.745 0 0 1 2.61199999,0.163 l 1.79400001,2.306 c 0.329,0.423 0.445,0.9739999 0.315,1.4939999 l -0.547,2.19 a 0.68,0.68 0 0 0 0.178,0.643 l 2.457,2.457 a 0.68,0.68 0 0 0 0.644,0.178 l 2.1890001,-0.547 a 1.75,1.75 0 0 1 1.494,0.315 l 2.3060002,1.794 c 0.829,0.645 0.905,1.87 0.163,2.611 l -1.034,1.034 c -0.7400002,0.74 -1.8460002,1.065 -2.8770002,0.702 a 18.6,18.6 0 0 1 -7.01000011,-4.42 18.6,18.6 0 0 1 -4.41999999,-7.009 c -0.362,-1.0299999 -0.037,-2.1369999 0.703,-2.8769999 z"
           id="path7" /><path
           style="color:#000000;fill:#000000;stroke-width:0;stroke-dasharray:none"
           d="M -0.84179688,5.8964844 C -1.4543094,5.858261 -2.0827128,6.0688915 -2.5527344,6.5390625 l -1.0332031,1.0351562 c -0.8582875,0.8591525 -1.2434477,2.1579845 -0.8164062,3.3730473 0.9510956,2.705954 2.5015861,5.162859 4.53320307,7.1875 3.611e-4,3.62e-4 0.001592,-3.63e-4 0.001953,0 3.6215e-4,3.6e-4 -3.6218e-4,0.0016 0,0.002 2.02493593,2.031746 4.48117893,3.580292 7.18750003,4.53125 1.2164372,0.428289 2.5160092,0.04454 3.3750006,-0.814453 l 1.033203,-1.033204 c 0.940066,-0.938799 0.842453,-2.511578 -0.207032,-3.328125 L 9.2148438,15.699219 C 8.6758496,15.281578 7.9742297,15.132399 7.3125,15.296875 L 5.1230469,15.84375 c -0.06919,0.01722 -0.1408802,-0.0024 -0.1914063,-0.05273 L 2.4765625,13.335938 c -0.049724,-0.04998 -0.068986,-0.12098 -0.052734,-0.189454 v -0.002 l 0.546875,-2.1875 C 3.1362244,10.294946 2.9874946,9.5916225 2.5683594,9.0527344 L 0.77539062,6.7460937 C 0.3674694,6.2211353 -0.22928436,5.9347078 -0.84179688,5.8964844 Z m -0.0585938,0.9453125 c 0.34682102,0.021643 0.68355476,0.188004 0.91992188,0.4921875 L 1.8144531,9.640625 c 0.2388642,0.307111 0.3229941,0.706071 0.2285157,1.083984 l -0.5468751,2.189454 v 0.002 c -0.097128,0.392332 0.017678,0.80917 0.3027344,1.095703 l 2.4570313,2.457031 h 0.00195 c 0.2868868,0.285645 0.7028431,0.402452 1.0957031,0.304687 l 2.1894531,-0.548828 v 0.002 c 0.3781952,-0.094 0.7778889,-0.01018 1.0859376,0.228516 v -0.002 l 2.3046878,1.794922 c 0.608514,0.473452 0.663072,1.351333 0.11914,1.894531 l -1.035156,1.035156 C 9.39657,21.798742 8.4842326,22.063335 7.6386719,21.765625 5.0672115,20.862055 2.7323599,19.38978 0.80859375,17.458984 h -0.001953 C -1.1240315,15.535499 -2.5962992,13.200018 -3.5,10.628906 -3.7967558,9.7845459 -3.5290586,8.8708555 -2.9082031,8.25 l 1.03125,-1.0351563 c 0.2723507,-0.2724373 0.6297415,-0.3946899 0.97656242,-0.3730468 z m -0.007813,0.1191406 C -1.2274718,6.9411208 -1.5538918,7.049683 -1.796875,7.2929687 L -2.8320313,8.328125 c -0.6008937,0.6021378 -0.8389847,1.4800554 -0.5625,2.267578 0.9005534,2.55469 2.3636764,4.873905 4.28125005,6.787109 1.91320415,1.917574 4.23241915,3.380697 6.78710935,4.28125 0.7875228,0.276485 1.6654403,0.03839 2.2675782,-0.5625 L 10.974609,20.066406 C 11.461181,19.58044 11.41012,18.758004 10.867188,18.335937 L 8.5605469,16.541016 h -0.00195 C 8.2786554,16.324537 7.9156935,16.248627 7.5722656,16.333984 h -0.00195 l -2.1894531,0.546875 c -0.4327508,0.107417 -0.887323,-0.01921 -1.203125,-0.333984 L 1.7226562,14.089844 C 1.4076244,13.774189 1.2814406,13.319598 1.3886719,12.886719 l 0.546875,-2.189453 C 2.0209038,10.353838 1.9449945,9.9889227 1.7285156,9.7089844 L -0.06640625,7.4003906 C -0.27743928,7.1289245 -0.58893441,6.9807542 -0.90820368,6.9609375 Z M -1.1210937,7.96875 c 0.090746,-0.090859 0.220014,-0.081853 0.29882807,0.019531 l 1.79492188,2.306641 h -0.001953 c 0.037951,0.04908 0.0520734,0.111668 0.0371094,0.171875 L 0.45898438,12.65625 c -0.18743999,0.756671 0.0352627,1.557612 0.58593752,2.109375 l 2.4570312,2.458984 c 0.5520219,0.55022 1.3529268,0.771749 2.109375,0.583985 l 2.1914063,-0.546875 c 0.05955,-0.0148 0.1210884,-0.0018 0.1699218,0.03516 l 2.3066408,1.794922 c 0.101384,0.07881 0.110391,0.208082 0.01953,0.298828 L 9.2636719,20.423828 C 8.8984944,20.787182 8.4057019,20.906066 7.9921875,20.761719 5.5726662,19.908814 3.3744762,18.523146 1.5625,16.707031 v -0.002 C -0.25361459,14.893102 -1.6392825,12.696865 -2.4921875,10.277344 -2.6377023,9.8628679 -2.5194022,9.3697674 -2.1542969,9.0039063 Z"
           id="path8" /></g></g></g></svg>
