<?xml version="1.0" encoding="UTF-8" standalone="no"?>
<!-- Created with Inkscape (http://www.inkscape.org/) -->

<svg
   width="16.118517mm"
   height="16.118526mm"
   viewBox="0 0 16.118517 16.118526"
   version="1.1"
   id="svg1"
   xml:space="preserve"
   xmlns:inkscape="http://www.inkscape.org/namespaces/inkscape"
   xmlns:sodipodi="http://sodipodi.sourceforge.net/DTD/sodipodi-0.dtd"
   xmlns="http://www.w3.org/2000/svg"
   xmlns:svg="http://www.w3.org/2000/svg"><sodipodi:namedview
     id="namedview1"
     pagecolor="#ffffff"
     bordercolor="#000000"
     borderopacity="0.25"
     inkscape:showpageshadow="2"
     inkscape:pageopacity="0.0"
     inkscape:pagecheckerboard="0"
     inkscape:deskcolor="#d1d1d1"
     inkscape:document-units="mm" /><defs
     id="defs1" /><g
     inkscape:label="Layer 1"
     inkscape:groupmode="layer"
     id="layer1"
     transform="translate(-85.649851,-145.115)"><g
       style="fill:currentColor"
       id="g2"
       transform="matrix(1.0263026,0,0,1.0264311,85.347353,145.11415)"><path
         d="m 15.854,0.146 a 0.5,0.5 0 0 1 0.11,0.54 L 10.145,15.233 A 0.75,0.75 0 0 1 8.816,15.357 L 5.638,10.362 0.643,7.184 A 0.75,0.75 0 0 1 0.767,5.854 L 15.314,0.037 a 0.5,0.5 0 0 1 0.54,0.11 z M 6.636,10.07 9.397,14.408 14.13,2.576 Z M 13.423,1.869 1.591,6.602 5.93,9.362 Z"
         id="path1-9" /></g></g></svg>
