<?xml version="1.0" encoding="UTF-8" standalone="no"?>
<!-- Created with Inkscape (http://www.inkscape.org/) -->

<svg
   width="16.118517mm"
   height="16.118526mm"
   viewBox="0 0 16.118517 16.118526"
   version="1.1"
   id="svg1"
   xml:space="preserve"
   xmlns:inkscape="http://www.inkscape.org/namespaces/inkscape"
   xmlns:sodipodi="http://sodipodi.sourceforge.net/DTD/sodipodi-0.dtd"
   xmlns="http://www.w3.org/2000/svg"
   xmlns:svg="http://www.w3.org/2000/svg"><sodipodi:namedview
     id="namedview1"
     pagecolor="#ffffff"
     bordercolor="#000000"
     borderopacity="0.25"
     inkscape:showpageshadow="2"
     inkscape:pageopacity="0.0"
     inkscape:pagecheckerboard="0"
     inkscape:deskcolor="#d1d1d1"
     inkscape:document-units="mm" /><defs
     id="defs1" /><g
     inkscape:label="Layer 1"
     inkscape:groupmode="layer"
     id="layer1"
     transform="translate(-112.90458,-143.78611)"><path
       d="m 125.7018,156.36611 c -0.6013,-1.47018 -2.0463,-2.50592 -3.73056,-2.50592 h -2.01481 c -1.68426,0 -3.12926,1.03574 -3.73056,2.50592 -1.12074,-1.17741 -1.81018,-2.76722 -1.81018,-4.52074 0,-3.61722 2.93092,-6.54815 6.54815,-6.54815 3.61722,0 6.54814,2.93093 6.54814,6.54815 0,1.75352 -0.68944,3.34333 -1.81018,4.52074 z m -1.26241,1.02945 c -1.0074,0.63277 -2.1974,0.99796 -3.47555,0.99796 -1.27815,0 -2.46815,-0.36519 -3.47871,-0.99796 0.22982,-1.15537 1.24982,-2.02426 2.4713,-2.02426 h 2.01481 c 1.22149,0 2.24149,0.86889 2.4713,2.02426 z m -3.47555,2.50907 a 8.05926,8.05926 0 1 0 0,-16.11852 8.05926,8.05926 0 1 0 0,16.11852 z m 0,-8.56296 a 1.25926,1.25926 0 1 1 0,-2.51852 1.25926,1.25926 0 1 1 0,2.51852 z m -2.77037,-1.25926 a 2.7703706,2.7703706 0 1 0 5.54074,0 2.7703706,2.7703706 0 1 0 -5.54074,0 z"
       id="path1-5"
       style="stroke-width:0.0314814" /></g></svg>
